<svg xmlns="http://www.w3.org/2000/svg" width="18" height="30" viewBox="0 0 18 30" xmlns:xlink="http://www.w3.org/1999/xlink">
  <defs>
    <path id="a" d="M9.20142345,12.8806759 C9.20142345,10.2005095 8.83574665,7.47360641 7.77303287,4.06031147 C6.1626933,-1.11188452 -2.15225165,0.0143705415 0.682746047,5.8518859 C1.92767276,8.41545909 2.29169473,10.7637238 2.29169473,12.8806759 C2.29169473,13.3649554 9.20142345,15.33314 9.20142345,12.8806759 Z"/>
  </defs>
  <g fill="none" fill-rule="evenodd" transform="matrix(-1 0 0 1 18 0)">
    <path fill="#EBD1C3" d="M0.518173614,27.9476336 C0.246299444,28.0327417 0.378661064,28.710997 0.947687311,29.3302923 C1.32703814,29.7431559 1.70603395,29.9053727 2.08467474,29.8169427 C2.08467474,29.8169427 21.7216257,24.6682783 15.3018655,4.04886454 C13.6915259,-1.12333145 5.84774835,0.143822324 8.68274605,5.98133768 C15.3246399,19.6584328 3.31425025,27.0723432 0.518173614,27.9476336 Z"/>
    <g transform="translate(8)">
      <mask id="b" fill="white">
        <use xlink:href="#a"/>
      </mask>
      <use fill="#FE5635" xlink:href="#a"/>
      <path fill="#FFFFFF" d="M0 4.78227101C1.60353866 4.75725443 3.10353866 4.58472054 4.5 4.26466934 5.89646134 3.94461813 7.39646134 3.52306169 9 3L9 5C7.70492122 5.54334895 6.20492122 5.9649054 4.5 6.26466934 2.79507878 6.56443327 1.29507878 6.73696716 0 6.78227101L0 4.78227101zM0 8.26466934C1.60353866 8.58472054 3.10353866 8.58472054 4.5 8.26466934 5.89646134 7.94461813 7.39646134 7.52306169 9 7L9 9C7.70492122 9.54334895 6.20492122 9.9649054 4.5 10.2646693 2.79507878 10.5644333 1.29507878 10.5644333 0 10.2646693L0 8.26466934z" mask="url(#b)"/>
    </g>
  </g>
</svg>
