<svg xmlns="http://www.w3.org/2000/svg" width="64" height="92" viewBox="0 0 64 92">
  <g fill="none" fill-rule="evenodd">
    <g transform="translate(0 39)">
      <path fill="#141519" d="M18.1322414,46.5227273 C18.1322414,46.5227273 15.0151901,50.1176892 13.5639052,50.4235092 C12.1130242,50.7293293 10.8196721,51.4773273 10.8196721,51.4773273 C10.8196721,51.4773273 13.191087,52.9019915 15.1153623,52.996181 C17.0396375,53.0903704 18.553934,51.411907 20.4555897,51.319294 C22.3568416,51.2270751 21.3971274,47.4011717 21.3971274,47.4011717 L18.1322414,46.5227273 Z"/>
      <path fill="#172C4C" d="M30.1702952,27.0475685 C37.7878922,23.4207933 45.5452654,16.9810856 45.5452654,16.9810856 C48.5547317,15.0108151 50.1648063,11.4972878 49.6876113,7.94195221 L46.5884927,0.102272727 L31.9062907,5.31451898 C31.9062907,5.31451898 17.3377842,15.5920733 15.3320167,18.8697689 C13.3262491,22.1470585 7.79143921,41.2036562 7.79143921,41.2036562 C7.79143921,41.2036562 6.45724927,42.9542352 7.79143921,43.4721719 C9.12522163,43.9897028 10.6106927,42.8429183 10.6106927,42.8429183 C10.6106927,42.8429183 19.5963321,27.8656144 21.0302384,23.6663668 C24.8376106,20.7138024 33.7759497,14.0313626 33.7759497,14.0313626 C33.7759497,14.0313626 26.1746531,21.0133615 24.3070317,23.1727844 C22.4394103,25.3318014 17.312926,47.5012005 17.312926,47.5012005 C17.312926,47.5012005 17.3455269,48.1019423 19.1218659,48.5135315 C20.8982049,48.9251208 21.6541372,48.4522396 21.6541372,48.4522396 C21.6541372,48.4522396 29.6340112,36.4796195 30.1702952,27.0475685 Z"/>
      <path fill="#141519" d="M8.05903736,41 C8.05903736,41 4.18256641,43.1655766 2.78453849,43.0403643 C1.38695355,42.9155495 0,43.1981715 0,43.1981715 C0,43.1981715 1.71165395,44.9960612 3.41622031,45.5752178 C5.12122964,46.1547718 6.98393794,45.1590359 8.72394227,45.5776027 C10.4635036,45.9965671 10.7377049,42.5780725 10.7377049,42.5780725 C10.0252309,42.4250681 9.54694439,42.2766633 9.30284528,42.1328582 C8.95168493,41.9259805 8.53708229,41.5483611 8.05903736,41 Z"/>
    </g>
    <g transform="translate(12)">
      <g transform="translate(43 50)">
        <polygon fill="#DD2222" points=".262 9.614 6.754 9.614 6.754 3.136 .262 3.136"/>
        <path fill="#D32F1E" d="M6.27927658,9.61363636 L5.99939626,8.79370277 C6.11896538,8.75482289 6.25403421,8.73451895 6.39663146,8.71335101 C7.08968951,8.60923932 8.1365836,8.45199178 8.02454291,5.81550353 C8.00594327,5.38048081 7.81596122,5.25822517 7.75351956,5.21804929 C7.28852853,4.91867417 6.29699052,5.1783054 5.9861108,5.29364906 L5.67213115,4.48537944 C5.83819937,4.42446762 7.31997079,3.90390915 8.24153872,4.49661141 C8.52939031,4.68237086 8.87879785,5.05518577 8.90935441,5.78007963 C9.0541659,9.18811761 7.35008449,9.44386086 6.53125743,9.5674125 C6.4316165,9.58210046 6.34437532,9.59203643 6.27927658,9.61363636"/>
        <path fill="#DD2222" d="M6.75409836,9.61363636 C6.75409836,10.8059054 5.30105525,11.7727273 3.50819672,11.7727273 C1.71571788,11.7727273 0.262295082,10.8059054 0.262295082,9.61363636 C0.262295082,8.42136729 1.71571788,7.45454545 3.50819672,7.45454545 C5.30105525,7.45454545 6.75409836,8.42136729 6.75409836,9.61363636"/>
        <path fill="#FFF6E5" d="M3.50819672,5.29545455 C1.71843339,5.29545455 0.262295082,4.32683067 0.262295082,3.1368201 C0.262295082,1.9458966 1.71843339,0.977272727 3.50819672,0.977272727 C5.29796005,0.977272727 6.75409836,1.9458966 6.75409836,3.1368201 C6.75409836,4.32683067 5.29796005,5.29545455 3.50819672,5.29545455"/>
        <path fill="#FF472E" d="M3.50819672,0.977272727 C1.71571788,0.977272727 0.262295082,1.94409456 0.262295082,3.13636364 C0.262295082,4.32863271 1.71571788,5.29545455 3.50819672,5.29545455 C5.30067557,5.29545455 6.75409836,4.32863271 6.75409836,3.13636364 C6.75409836,1.94409456 5.30067557,0.977272727 3.50819672,0.977272727 M3.50819672,1.19404892 C5.1647494,1.19404892 6.56425735,2.08369843 6.56425735,3.13636364 C6.56425735,4.18902884 5.1647494,5.07867835 3.50819672,5.07867835 C1.85164404,5.07867835 0.452136095,4.18902884 0.452136095,3.13636364 C0.452136095,2.08369843 1.85164404,1.19404892 3.50819672,1.19404892"/>
      </g>
      <path fill="#FA8562" d="M16.4714652,22.2619592 C16.6903033,22.9026556 21.7154448,33.0072285 17.9707911,39.3534197 C14.226544,45.7000082 17.628704,46.1853963 17.628704,46.1853963 C22.9873906,47.1498172 32.3099759,48.8530449 38.1514893,46.6926309 C40.4671871,44.9246583 45.644051,30.2831764 32.2782484,18.5190688 C28.1455434,14.8814385 16.4714652,22.2619592 16.4714652,22.2619592"/>
      <path fill="#EA463D" d="M11.8852459,44.451918 C11.8852459,44.451918 14.222429,41.7681599 14.7765849,39.6516619 C15.3307408,37.5351638 16.0198565,32.496642 15.9030643,28.7997632 L15.7506903,23.9886364 L21.4601115,24.8712547 L21.6229508,29.4862906 C21.0293619,41.3316052 16.0001818,46.6590909 16.0001818,46.6590909 L11.8852459,44.451918 Z"/>
      <g transform="translate(0 33)">
        <path fill="#BBD0EA" d="M34.5035316,21.2545395 L21.8059158,28.5121656 C21.5795189,28.6416511 21.3014444,28.6477018 21.0697156,28.5274941 L1.2255334,18.2529653 C0.699324618,17.9802794 0.680868347,17.2453184 1.19313239,16.9476229 L14.3504027,9.3003174 C14.6075601,9.15066288 14.9254181,9.14219187 15.1903681,9.27813142 L34.659683,19.1492788 C35.5889169,19.634931 35.4404057,20.6347247 34.8694094,21.0449908 C34.8247556,21.0770749 34.7027964,21.1469245 34.5035316,21.2545395 Z"/>
        <path fill="#E3F0FF" d="M21.8080247,27.6438848 C21.5519118,27.7891406 21.0561613,27.5723034 20.7939312,27.4373946 L1.27919536,17.4123562 C0.68336603,17.1063241 0.66256706,16.2805548 1.24249129,15.9462675 L13.3401512,9.2987251 C13.5958562,9.15108153 13.911919,9.14272434 14.1753726,9.27683724 L33.8976903,19.2994878 C34.4988213,19.605122 34.5188046,20.4376566 33.9327631,20.7703521 L21.8080247,27.6438848 Z"/>
      </g>
      <path fill="#F24C3B" d="M38.9344262,21.8295455 C38.9344262,25.4067031 33.3636361,28.3068182 26.4916047,28.3068182 C19.6199705,28.3068182 14.0491803,25.4067031 14.0491803,21.8295455 C14.0491803,18.2523878 19.6199705,15.3522727 26.4916047,15.3522727 C33.3636361,15.3522727 38.9344262,18.2523878 38.9344262,21.8295455"/>
      <g transform="translate(10)">
        <circle cx="2" cy="14" r="1" fill="#FFFFFF"/>
        <circle cx="30" cy="14" r="1" fill="#FFFFFF"/>
        <path fill="#FFFFFF" d="M16.1228295,24 C24.6844077,23.2951574 27,21.8230327 27,16.9428752 C27,12.0627178 21.5427812,9 15.5354858,9 C9.52819044,9 4,12.6024576 4,16.5 C4,20.3975424 7.56125134,24.7048426 16.1228295,24 Z"/>
        <path fill="#172C4C" d="M9.5 15C9.22390318 15 9 15.2237795 9 15.5 9 15.776063 9.22390318 16 9.5 16 9.77609682 16 10 15.776063 10 15.5 10 15.2237795 9.77609682 15 9.5 15M19.5 15C19.2239032 15 19 15.2237795 19 15.5 19 15.776063 19.2239032 16 19.5 16 19.7760968 16 20 15.776063 20 15.5 20 15.2237795 19.7760968 15 19.5 15"/>
        <path fill="#172C4C" d="M29.3237863,14.3531659 C29.2055976,13.9192935 29.540256,13.4007275 30.071267,13.1951323 C30.602278,12.989329 31.1286788,13.174115 31.2468675,13.6079874 C31.3650562,14.0418598 31.0303977,14.5602177 30.4993867,14.766021 C29.9683758,14.9718243 29.4421845,14.7868303 29.3237863,14.3531659 Z M3.03640535,14.1980908 C3.15459406,13.7642184 3.03039772,13.4007275 2.49938675,13.1951323 C1.96837577,12.989329 1.44197499,13.174115 1.32378628,13.6079874 C1.20559757,14.0418598 1.54025603,14.5602177 2.071267,14.766021 C2.60227798,14.9718243 2.91800709,14.6317552 3.03640535,14.1980908 Z M14.5891674,23.9397043 C8.75580012,23.9305482 5.44275157,20.7567901 5.44275157,16.8488168 C5.44275157,16.7668284 5.44568534,16.6856724 5.44966687,16.6049326 C5.45113375,16.5780887 5.45239108,16.5514529 5.45427707,16.5250252 C5.45783949,16.4696726 5.4628688,16.4147363 5.46831722,16.3597999 C5.47586118,16.2863433 5.48445291,16.2130948 5.49534974,16.1400544 C5.61584355,15.3503442 5.91655419,14.1781603 6.37044912,13.5026927 C7.46138959,11.9357577 8.63753177,10.8919668 10.8571325,10.8919668 C12.566049,10.8919668 13.469937,11.5005327 14.5891674,12.5 C15.7083977,11.5005327 17.2200609,10.8919668 18.9287679,10.8919668 C21.1485782,10.8919668 22.5701923,12.0410524 23.6609233,13.6079874 C24.1150278,14.283455 24.4155288,15.4556389 24.5330889,16.2237075 C24.5469195,16.3183895 24.5557208,16.391638 24.5630552,16.4650946 C24.5685036,16.520031 24.5735329,16.5749673 24.5773049,16.6303199 C24.5789813,16.6567476 24.5804482,16.6833834 24.5817055,16.7102273 C24.585687,16.7909671 24.5886208,16.8721231 24.5886208,16.9541115 C24.5886208,20.8620848 20.6370153,23.9305482 14.8038577,23.9397043 M28.3223256,11.8287983 C26.8072469,8.56632734 23.6609233,5.34389559 18.151056,4.295979 C16.0494344,3.46319364 14.4036966,2.45151165 14.2211747,0.583467133 C14.0386527,2.45151165 13.7231517,3.69617341 11.6213205,4.52895877 C7.72612241,5.77355877 5.19296267,8.56632734 3.67788399,11.8287983 C3.28360858,10.9964544 2.78783206,10.7245288 2.11261466,10.7245288 C1.09471129,10.7245288 0.294431842,11.6714072 0.0722824047,13.1237544 C-0.149867032,14.5761017 0.295271833,16.0333372 1.52722667,16.4247247 C1.88378823,16.538003 2.23877076,16.6049326 2.73544957,16.5250252 C2.73957043,16.7104838 2.71788164,16.4475593 2.73544957,16.6284867 C3.22978134,21.7194735 8.97690386,24.9909572 16.0001048,25 C23.2729015,24.9906358 29.1770982,21.4828241 29.2973824,16.0788753 C29.6485957,16.2994531 30.048216,16.4247247 30.4727733,16.4247247 C31.8686155,16.4247247 33,15.0756624 33,13.4113402 C33,11.747018 31.8686155,10.3977476 30.4727733,10.3977476 C29.5639357,10.3977476 28.7676288,10.9702095 28.3223256,11.8287983 Z"/>
      </g>
    </g>
  </g>
</svg>
