<svg xmlns="http://www.w3.org/2000/svg" width="66" height="92" viewBox="0 0 66 92" xmlns:xlink="http://www.w3.org/1999/xlink">
  <defs>
    <circle id="a" cx="8.5" cy="8.5" r="8.5"/>
    <path id="c" d="M3.51599215,4.32681136 C3.73483027,4.96750777 3.9995733,14.2702822 1.97079106,20.3534197 C-0.0579911677,26.4365573 1.62870397,27.1853963 1.62870397,27.1853963 C6.98739058,28.1498172 16.3099759,29.8530449 22.1514893,27.6926309 C24.4671871,25.9246583 29.6107131,13.3680929 16.2449105,1.60398532 C12.1122054,-2.03364501 0.471465206,3.26195924 0.471465206,3.26195924 L3.51599215,4.32681136 Z"/>
  </defs>
  <g fill="none" fill-rule="evenodd" transform="translate(-1)">
    <g transform="translate(50 49)">
      <mask id="b" fill="white">
        <use xlink:href="#a"/>
      </mask>
      <use fill="#FFFFFF" xlink:href="#a"/>
      <path fill="#FE5635" d="M7.28002451,1.95884913 L6.68063156,1.95884913 L5.32851075,1.64908007 L4.94648587,-1.17140093 L5.32851075,-1.96739654 L11.8546352,-1.66468884 C16.9920022,1.99458766 18.1996105,3.25425847 15.47746,2.11432361 C12.7553095,0.974388745 10.022831,0.922563919 7.28002451,1.95884913 Z M4.94648587,3.72947391 C5.78922399,3.19220746 6.27763378,2.96375688 6.41171526,3.04412216 C6.61283747,3.16467007 9.2579798,4.16206109 11.8546352,5.59853486 C13.5857388,6.55618404 15.8983573,8.40842532 18.7924906,11.1552587 C15.8406829,17.6690483 13.2920311,20.2709878 11.1465354,18.961077 C8.64108716,17.431401 6.41171526,10.8919641 5.98015684,9.50166569 C5.51686209,8.00912621 5.1723051,6.08506229 4.94648587,3.72947391 Z M0.689871831,3.8441951 C1.61083228,3.42531738 2.67730901,3.13800921 3.88930204,2.98227058 C5.10129508,2.82653196 5.19717893,3.11384013 4.1769536,3.8441951 L3.68036832,4.6587205 C0.391292124,9.8196175 -0.302562086,13.5238339 1.59880568,15.7713697 C3.50017346,18.0189056 2.52439726,15.7249782 -1.32852289,8.88958759 L-1.6787763,5.90110185 L0.689871831,3.8441951 Z" mask="url(#b)"/>
      <ellipse cx="5.665" cy="3.482" fill="#FEE487" transform="rotate(-30 5.665 3.482)" rx="2.5" ry="2"/>
    </g>
    <g transform="matrix(-1 0 0 1 56 0)">
      <g transform="translate(0 39)">
        <path fill="#EBD1C3" d="M18.1322414,46.5227273 C18.1322414,46.5227273 15.0151901,50.1176892 13.5639052,50.4235092 C12.1130242,50.7293293 10.8196721,51.4773273 10.8196721,51.4773273 C10.8196721,51.4773273 13.191087,52.9019915 15.1153623,52.996181 C17.0396375,53.0903704 18.553934,51.411907 20.4555897,51.319294 C22.3568416,51.2270751 21.3971274,47.4011717 21.3971274,47.4011717 L18.1322414,46.5227273 Z"/>
        <path fill="#EA8A29" d="M30.1240562 26.8713716C30.6795846 26.8713716 30.7391539 26.7814762 31.1541648 26.7201731 31.7706231 26.6291133 32 26.6650367 32 26.5 32 26.2238576 27.0124303 22.8018628 25.6317184 22.8018628 24.2510065 22.8018628 23.3651621 22.742466 23.3651621 23.0186084 23.3651621 23.0651034 23.4172705 23.847708 23.6973715 24.041381 25.0808437 24.9979689 28.9758191 26.8713716 30.1240562 26.8713716zM20.3610844 22.3412588C20.9166128 22.3412588 20.7879314 22.5425855 21.2029423 22.4812824 21.8194006 22.3902227 22.1117308 22.2258582 22.1117308 22.0608215 22.1117308 21.7846791 18.6472682 18.005374 17.2665563 18.005374 15.8858444 18.005374 14.7765207 18.5741206 14.7765207 18.850263 14.7765207 18.8967579 14.5907309 19.8437684 14.8708319 20.0374414 16.2543042 20.9940293 19.2128473 22.3412588 20.3610844 22.3412588z"/>
        <path fill="#EBD1C3" d="M28.7771416,27.2158262 C36.3947385,23.589051 45.5452654,16.9810856 45.5452654,16.9810856 C48.5547317,15.0108151 50.1648063,11.4972878 49.6876113,7.94195221 L46.5884927,0.102272727 L31.9062907,5.31451898 C31.9062907,5.31451898 17.3377842,15.5920733 15.3320167,18.8697689 C13.3262491,22.1470585 7.79143921,41.2036562 7.79143921,41.2036562 C7.79143921,41.2036562 6.45724927,42.9542352 7.79143921,43.4721719 C9.12522163,43.9897028 10.561902,42.734618 10.561902,42.734618 C10.561902,42.734618 18.6615963,27.372032 20.0955026,23.1727844 C23.9028748,20.22022 33.7759497,14.0313626 33.7759497,14.0313626 C33.7759497,14.0313626 26.1746531,21.0133615 24.3070317,23.1727844 C22.4394103,25.3318014 18.1858317,46.4823371 18.1858317,46.4823371 C18.1858317,46.4823371 17.3455269,48.1019423 19.1218659,48.5135315 C20.8982049,48.9251208 21.4040255,47.4560841 21.4040255,47.4560841 C21.4040255,46.4823371 28.2408575,36.6478772 28.7771416,27.2158262 Z"/>
        <path fill="#FD9833" d="M34.8541053,25.5845674 C38.5887423,23.8064885 44.9719484,19.4214267 47.7712006,15.977234 C50.6816266,12.3962535 49.9308546,9.75423319 49.6876113,7.94195221 L46.5884927,0.102272727 L31.9062907,5.31451898 C31.9062907,5.31451898 16.8976852,15.2495553 14.8919177,18.5272508 C14.3829407,19.3588851 15.4891996,18.7493814 16.3863907,18.9299048 C17.2835817,19.1104283 18.9725385,19.9810016 19.9588326,20.6291778 C21.2254348,21.4615679 21.6710344,22.3065259 21.9097067,22.3065259 C25.3604795,20.9655567 33.7759497,14.0313626 33.7759497,14.0313626 C33.7759497,14.0313626 24.7005637,20.9455279 23.4104768,22.8791863 C23.1009991,23.3430499 24.0938313,22.7056477 24.9192693,23.0269959 C26.5415733,23.658569 27.8651251,24.4927844 29.1748082,25.3879878 C29.6926741,25.741963 31.0375548,26.7225224 31.2015406,26.7225224 C32.3778557,26.7225224 33.9292558,26.0881792 34.8541053,25.5845674 Z"/>
        <path fill="#EBD1C3" d="M8.05903736,41 C8.05903736,41 4.18256641,43.1655766 2.78453849,43.0403643 C1.38695355,42.9155495 0,43.1981715 0,43.1981715 C0,43.1981715 1.71165395,44.9960612 3.41622031,45.5752178 C5.12122964,46.1547718 6.98393794,45.1590359 8.72394227,45.5776027 C10.4635036,45.9965671 10.7377049,42.5780725 10.7377049,42.5780725 C10.0252309,42.4250681 9.54694439,42.2766633 9.30284528,42.1328582 C8.95168493,41.9259805 8.53708229,41.5483611 8.05903736,41 Z"/>
      </g>
      <g transform="translate(28 19)">
        <mask id="d" fill="white">
          <use xlink:href="#c"/>
        </mask>
        <use fill="#FE5635" xlink:href="#c"/>
        <path fill="#FFFFFF" d="M2 8C6.28627726 8.65081519 9.5009852 8.97622278 11.6441238 8.97622278 13.7872625 8.97622278 17.9058879 8.65081519 24 8L24 9.95704798C18.4107133 10.5664453 14.2920879 10.8711439 11.6441238 10.8711439 8.9961598 10.8711439 5.78145185 10.5664453 2 9.95704798L2 8zM2 13C4.73662965 13.6508152 7.9513376 13.9762228 11.6441238 13.9762228 15.3369101 13.9762228 19.4555355 13.6508152 24 13L24 14.957048C19.3879368 15.5664453 15.2693114 15.8711439 11.6441238 15.8711439 8.01893625 15.8711439 4.80422831 15.5664453 2 14.957048L2 13zM2 18C4.87953846 18.6508152 8.09424641 18.9762228 11.6441238 18.9762228 15.1940013 18.9762228 19.9820503 18.6508152 26.008271 18L26.008271 19.957048C20.5787889 20.5664453 15.7907399 20.8711439 11.6441238 20.8711439 7.49750779 20.8711439 4.28279985 20.5664453 2 19.957048L2 18zM.156571324 22.8094954C3.68423884 23.5873136 7.51342301 23.9762228 11.6441238 23.9762228 15.7748247 23.9762228 20.5628737 23.6508152 26.008271 23L26.008271 24.957048C20.751067 25.5664453 15.963018 25.8711439 11.6441238 25.8711439 7.32522967 25.8711439 3.4960455 25.5029437.156571324 24.7665434L.156571324 22.8094954z" mask="url(#d)"/>
      </g>
      <g transform="translate(12 33)">
        <path fill="#BBD0EA" d="M34.5035316,21.2545395 L21.8059158,28.5121656 C21.5795189,28.6416511 21.3014444,28.6477018 21.0697156,28.5274941 L1.2255334,18.2529653 C0.699324618,17.9802794 0.680868347,17.2453184 1.19313239,16.9476229 L14.3504027,9.3003174 C14.6075601,9.15066288 14.9254181,9.14219187 15.1903681,9.27813142 L34.659683,19.1492788 C35.5889169,19.634931 35.4404057,20.6347247 34.8694094,21.0449908 C34.8247556,21.0770749 34.7027964,21.1469245 34.5035316,21.2545395 Z"/>
        <path fill="#E3F0FF" d="M21.8080247,27.6438848 C21.5519118,27.7891406 21.0561613,27.5723034 20.7939312,27.4373946 L1.27919536,17.4123562 C0.68336603,17.1063241 0.66256706,16.2805548 1.24249129,15.9462675 L13.3401512,9.2987251 C13.5958562,9.15108153 13.911919,9.14272434 14.1753726,9.27683724 L33.8976903,19.2994878 C34.4988213,19.605122 34.5188046,20.4376566 33.9327631,20.7703521 L21.8080247,27.6438848 Z"/>
      </g>
      <g transform="translate(22)">
        <circle cx="2" cy="14" r="1" fill="#FFFFFF"/>
        <path fill="#EBD1C3" d="M30 15C30.5522847 15 31.5251531 14.1381711 31.5251531 13.5858863 31.5251531 13.0336016 30.5522847 13 30 13 29.4477153 13 29 13.4477153 29 14 29 14.5522847 29.4477153 15 30 15zM16.1228295 24C24.6844077 23.2951574 27 21.8230327 27 16.9428752 27 12.0627178 21.5427812 9 15.5354858 9 9.52819044 9 4 12.6024576 4 16.5 4 20.3975424 7.56125134 24.7048426 16.1228295 24z"/>
        <path fill="#172C4C" d="M9.5 15C9.22390318 15 9 15.2237795 9 15.5 9 15.776063 9.22390318 16 9.5 16 9.77609682 16 10 15.776063 10 15.5 10 15.2237795 9.77609682 15 9.5 15M19.5 15C19.2239032 15 19 15.2237795 19 15.5 19 15.776063 19.2239032 16 19.5 16 19.7760968 16 20 15.776063 20 15.5 20 15.2237795 19.7760968 15 19.5 15"/>
        <path fill="#172C4C" d="M29.3237863,14.3531659 C29.2055976,13.9192935 29.540256,13.4007275 30.071267,13.1951323 C30.602278,12.989329 31.1286788,13.174115 31.2468675,13.6079874 C31.3650562,14.0418598 31.0303977,14.5602177 30.4993867,14.766021 C29.9683758,14.9718243 29.4421845,14.7868303 29.3237863,14.3531659 Z M3.03640535,14.1980908 C3.15459406,13.7642184 3.03039772,13.4007275 2.49938675,13.1951323 C1.96837577,12.989329 1.44197499,13.174115 1.32378628,13.6079874 C1.20559757,14.0418598 1.54025603,14.5602177 2.071267,14.766021 C2.60227798,14.9718243 2.91800709,14.6317552 3.03640535,14.1980908 Z M14.5891674,23.9397043 C8.75580012,23.9305482 5.44275157,20.7567901 5.44275157,16.8488168 C5.44275157,16.7668284 5.44568534,16.6856724 5.44966687,16.6049326 C5.45113375,16.5780887 5.45239108,16.5514529 5.45427707,16.5250252 C5.45783949,16.4696726 5.4628688,16.4147363 5.46831722,16.3597999 C5.47586118,16.2863433 5.48445291,16.2130948 5.49534974,16.1400544 C5.61584355,15.3503442 5.91655419,14.1781603 6.37044912,13.5026927 C7.46138959,11.9357577 8.63753177,10.8919668 10.8571325,10.8919668 C12.566049,10.8919668 13.469937,11.5005327 14.5891674,12.5 C15.7083977,11.5005327 17.2200609,10.8919668 18.9287679,10.8919668 C21.1485782,10.8919668 22.5701923,12.0410524 23.6609233,13.6079874 C24.1150278,14.283455 24.4155288,15.4556389 24.5330889,16.2237075 C24.5469195,16.3183895 24.5557208,16.391638 24.5630552,16.4650946 C24.5685036,16.520031 24.5735329,16.5749673 24.5773049,16.6303199 C24.5789813,16.6567476 24.5804482,16.6833834 24.5817055,16.7102273 C24.585687,16.7909671 24.5886208,16.8721231 24.5886208,16.9541115 C24.5886208,20.8620848 20.6370153,23.9305482 14.8038577,23.9397043 M28.3223256,11.8287983 C26.8072469,8.56632734 23.6609233,5.34389559 18.151056,4.295979 C16.0494344,3.46319364 14.4036966,2.45151165 14.2211747,0.583467133 C14.0386527,2.45151165 13.7231517,3.69617341 11.6213205,4.52895877 C7.72612241,5.77355877 5.19296267,8.56632734 3.67788399,11.8287983 C3.28360858,10.9964544 2.78783206,10.7245288 2.11261466,10.7245288 C1.09471129,10.7245288 0.294431842,11.6714072 0.0722824047,13.1237544 C-0.149867032,14.5761017 0.295271833,16.0333372 1.52722667,16.4247247 C1.88378823,16.538003 2.23877076,16.6049326 2.73544957,16.5250252 C2.73957043,16.7104838 2.71788164,16.4475593 2.73544957,16.6284867 C3.22978134,21.7194735 8.97690386,24.9909572 16.0001048,25 C23.2729015,24.9906358 29.1770982,21.4828241 29.2973824,16.0788753 C29.6485957,16.2994531 30.048216,16.4247247 30.4727733,16.4247247 C31.8686155,16.4247247 33,15.0756624 33,13.4113402 C33,11.747018 31.8686155,10.3977476 30.4727733,10.3977476 C29.5639357,10.3977476 28.7676288,10.9702095 28.3223256,11.8287983 Z"/>
      </g>
      <polygon fill="#040911" points="23 13.013 25.651 11.791 25.651 12.791 23.448 14.061"/>
      <polygon fill="#040911" points="25.869 13.477 50.306 13.013 47.883 18.828 39.821 19.851 38.762 15.524 37.989 15.524 37.045 19.933 26.914 19.851 25.387 15.524 23 13.203 23 11.794" transform="matrix(-1 0 0 1 73.306 0)"/>
      <polygon fill="#FFFFFF" points="37.949 13.304 38.949 13.321 41.203 19.915 39.908 19.915" opacity=".7"/>
      <polygon fill="#FFFFFF" points="25.996 13.07 26.996 13.087 29.102 19.297 27.902 19.141" opacity=".7"/>
    </g>
  </g>
</svg>
