<svg xmlns="http://www.w3.org/2000/svg" width="338" height="360" viewBox="0 0 338 360">
  <g fill="none" fill-rule="evenodd">
    <g transform="translate(26)">
      <path fill="#0066FF" d="M38.9805847,247.001496 L155.943907,315.081701 L155.943907,359.895187 L9.09494702e-13,269.70003 L9.09494702e-13,269.657952 L0,90 L38.9805847,112.701539 L38.9805847,247.001496 Z"/>
      <path fill="#66A3FF" d="M39.0062492,112.725901 L39.0061881,112.70363 L156.00817,44.9519518 L156.00817,89.6615645 L77.2978426,135.22229 L77.966711,224.785008 L38.9843147,247.000225 L39.0061881,112.725936 Z"/>
      <path fill="#BFD9FF" d="M156.027031,44.9317423 L39.0124021,112.706191 L9.09494702e-13,90.0235114 L155.545182,0.0946079204 L311.5,89.9404551 L273.117572,112.437666 L156.027005,44.9293688 Z"/>
      <polygon fill="#0066FF" points="273.105 112.432 273.105 248.177 234.006 224.862 234.006 213.43 234.006 135.137 156 89.801 156 45"/>
      <path fill="#66A3FF" d="M311.133014,269.473327 L155.938538,359.852872 L155.938538,315.031669 L273.026209,248.106467 L273.026209,112.50992 L311.5,89.9523047 L311.5,269.264567 L311.133014,269.473327 Z"/>
      <path fill="#BFD9FF" d="M155.688469,314.93011 L155.652965,314.950767 L38.9722987,247.000795 L78.0936505,224.731438 L155.697704,269.549591 L233.991178,224.981488 L272.994926,248.122272 L155.948053,315.082447 L155.688469,314.93011 Z"/>
    </g>
    <g transform="translate(278 267)">
      <polygon fill="#FEC42D" points="17.998 21.291 18.5 64 37 52.907 37 10.24"/>
      <polygon fill="#FEE487" points="18.5 0 0 10.24 18.084 21.544 37 10.24"/>
      <polygon fill="#FF9933" points="0 52.907 18.5 64 18.5 21.333 0 10.24"/>
    </g>
    <g transform="translate(0 162)">
      <polygon fill="#FEC42D" points="18.5 21.5 18.5 43 37 31.82 37 10.317 33.582 10.651"/>
      <polygon fill="#FEE487" points="18.5 0 0 10.32 18.5 21.5 37 10.32"/>
      <polygon fill="#FF9933" points="0 31.82 18.5 43 18.5 21.5 0 10.32"/>
    </g>
  </g>
</svg>
