<svg xmlns="http://www.w3.org/2000/svg" width="22" height="29" viewBox="0 0 22 29">
  <g fill="none" fill-rule="evenodd" transform="matrix(-1 0 0 1 22 0)">
    <path fill="#F3FAFF" d="M19.9862279,28.504667 L1.2093311,18.2528565 C0.919287093,18.0935019 0.737704918,17.7827396 0.737704918,17.4439543 L0.737704918,1.46332612 C0.737704918,0.771534898 1.45387801,0.329022739 2.04655898,0.65442393 L20.8234558,10.9062345 C21.113906,11.065589 21.295082,11.3763513 21.295082,11.7147184 L21.295082,27.6957648 C21.295082,28.387556 20.5793151,28.8300682 19.9862279,28.504667"/>
    <path fill="#DFE5EA" d="M12.607872,16.8346634 C12.1272478,18.1936133 10.584259,17.954873 9.10193993,17.2534374 C7.82959812,16.6511507 7.0361594,15.9027498 7.40017738,14.8738616 C7.76419537,13.8445385 9.03094352,13.2548629 10.394505,13.5979706 C11.9835338,13.9980455 13.0884962,15.4757134 12.607872,16.8346634"/>
  </g>
</svg>
